<?xml version="1.0" standalone="no"?>
<!DOCTYPE svg PUBLIC "-//W3C//DTD SVG 20010904//EN"
 "http://www.w3.org/TR/2001/REC-SVG-20010904/DTD/svg10.dtd">
<svg version="1.0" xmlns="http://www.w3.org/2000/svg"
 width="423.000000pt" height="198.000000pt" viewBox="0 0 423.000000 198.000000"
 preserveAspectRatio="xMidYMid meet">

<g transform="translate(0.000000,198.000000) scale(0.100000,-0.100000)"
fill="#000000" stroke="none">
<path d="M1717 1600 c-166 -30 -261 -156 -228 -303 22 -100 87 -150 273 -213
56 -18 112 -44 125 -56 30 -28 30 -68 -1 -97 -38 -36 -137 -27 -236 20 l-75
36 -38 -55 c-21 -30 -37 -56 -35 -57 2 -2 77 1 168 6 91 4 229 8 308 8 l142 1
10 26 c15 37 12 140 -4 177 -30 71 -118 127 -277 177 -102 32 -129 51 -129 91
0 68 123 80 238 23 l61 -30 56 83 55 82 -43 25 c-82 48 -263 76 -370 56z"/>
<path d="M3023 1595 c-128 -28 -227 -109 -286 -233 -31 -65 -32 -71 -32 -198
l0 -131 40 -79 40 -79 55 -7 c30 -3 114 -11 185 -17 72 -7 184 -19 250 -27
l120 -15 41 43 c61 65 86 139 92 276 l5 112 -212 0 -211 0 0 -75 0 -75 96 0
97 0 -6 -42 c-11 -81 -72 -128 -167 -128 -95 1 -170 51 -208 140 -23 55 -20
165 8 223 65 138 209 164 381 70 6 -3 92 100 113 135 27 44 -164 123 -294 121
-25 0 -73 -7 -107 -14z"/>
<path d="M742 1195 c2 -217 6 -396 9 -399 2 -3 62 4 132 14 71 11 207 27 303
36 171 17 174 18 174 41 l0 23 -205 0 -205 0 0 90 0 90 170 0 170 0 0 80 0 80
-170 0 -170 0 0 80 0 80 205 0 205 0 0 90 0 90 -311 0 -311 0 4 -395z"/>
<path d="M2320 1240 l0 -350 63 0 c34 0 79 -3 100 -6 l37 -7 0 357 0 356 -100
0 -100 0 0 -350z"/>
<path d="M1780 749 c-383 -11 -797 -48 -1053 -95 -108 -19 -308 -66 -303 -71
2 -2 73 5 157 16 944 124 2109 126 3058 5 107 -13 196 -22 198 -20 5 5 -185
50 -297 70 -132 24 -381 54 -586 71 -173 14 -770 37 -874 33 -25 -1 -160 -5
-300 -9z"/>
<path d="M1233 543 c-12 -2 -34 -18 -48 -34 -34 -42 -34 -97 1 -138 22 -26 33
-31 71 -31 63 0 83 13 83 55 0 43 -27 49 -32 8 -2 -20 -11 -30 -31 -37 -62
-22 -114 69 -69 124 19 23 61 31 95 16 12 -6 17 -4 17 7 0 9 -3 18 -7 20 -15
8 -59 14 -80 10z"/>
<path d="M2113 543 c-70 -13 -97 -113 -47 -172 22 -26 33 -31 71 -31 36 0 50
6 74 29 72 72 4 192 -98 174z m72 -48 c16 -15 25 -36 25 -55 0 -35 -38 -80
-68 -80 -11 0 -31 9 -46 21 -20 16 -26 29 -26 59 0 30 6 43 26 59 35 27 59 26
89 -4z"/>
<path d="M1610 440 c0 -82 3 -100 15 -100 10 0 15 11 15 35 0 31 3 35 25 35
17 0 32 -10 47 -35 13 -19 31 -35 41 -35 17 0 17 2 -3 34 l-21 35 20 20 c27
27 27 65 1 91 -16 16 -33 20 -80 20 l-60 0 0 -100z m125 51 c9 -30 -5 -50 -40
-57 -44 -8 -55 0 -55 42 0 34 0 34 44 34 35 0 46 -4 51 -19z"/>
<path d="M2512 460 c6 -98 21 -120 83 -120 63 0 79 24 84 121 3 67 1 79 -13
79 -13 0 -16 -12 -16 -70 0 -57 -4 -74 -20 -90 -11 -11 -27 -20 -35 -20 -8 0
-24 9 -35 20 -16 16 -20 33 -20 90 0 58 -3 70 -16 70 -14 0 -16 -11 -12 -80z"/>
<path d="M2960 440 c0 -82 3 -100 15 -100 10 0 15 10 15 30 0 28 2 30 38 30
55 0 82 23 82 70 0 51 -26 70 -97 70 l-53 0 0 -100z m115 30 c0 -34 -1 -35
-42 -38 l-43 -3 0 41 0 41 43 -3 c41 -3 42 -4 42 -38z"/>
</g>
</svg>
